<?xml version="1.0" standalone="no"?>
<!DOCTYPE svg PUBLIC "-//W3C//DTD SVG 20010904//EN"
 "http://www.w3.org/TR/2001/REC-SVG-20010904/DTD/svg10.dtd">
<svg version="1.0" xmlns="http://www.w3.org/2000/svg"
 width="128.000000pt" height="128.000000pt" viewBox="0 0 128.000000 128.000000"
 preserveAspectRatio="xMidYMid meet">
<metadata>
Created by potrace 1.11, written by Peter Selinger 2001-2013
</metadata>
<g transform="translate(0.000000,128.000000) scale(0.100000,-0.100000)"
fill="#000000" stroke="none">
<path d="M257 1153 c-4 -3 -7 -19 -7 -35 0 -23 4 -29 18 -26 21 4 28 41 9 56
-8 7 -17 9 -20 5z"/>
<path d="M133 1095 c-6 -16 22 -44 45 -45 18 0 15 24 -6 43 -23 21 -31 21 -39
2z"/>
<path d="M372 1094 c-26 -18 -29 -47 -6 -42 21 4 48 44 36 52 -5 3 -18 -2 -30
-10z"/>
<path d="M234 1065 c-60 -26 -85 -86 -57 -143 28 -58 114 -76 157 -32 28 28
32 131 6 155 -28 26 -73 34 -106 20z"/>
<path d="M783 958 c-28 -35 -64 -85 -81 -112 l-30 -49 -32 52 c-34 55 -69 77
-98 62 -9 -5 -114 -170 -232 -366 -118 -196 -223 -364 -232 -375 -10 -10 -25
-16 -35 -14 -23 5 -48 -10 -39 -25 9 -15 1102 -16 1111 -1 7 11 55 9 55 -2 0
-15 77 -8 91 8 29 35 11 94 -28 94 -8 0 -23 9 -35 20 -12 11 -31 20 -42 20
-40 1 -56 24 -56 79 l0 51 43 1 c98 2 102 3 105 26 2 12 -6 43 -17 69 -25 55
-27 75 -7 68 31 -12 28 35 -7 100 -31 59 -32 65 -15 69 10 3 18 13 18 23 0 24
-43 97 -102 172 -60 74 -80 78 -123 22 -16 -21 -32 -39 -35 -39 -3 0 -25 24
-49 54 -24 30 -51 55 -60 55 -10 0 -40 -28 -68 -62z m213 -613 c0 -27 -1 -54
-4 -59 -5 -8 -71 91 -72 107 0 5 17 7 37 5 l38 -3 1 -50z"/>
<path d="M90 980 c-11 -7 -12 -12 -4 -20 16 -16 59 -8 59 10 0 18 -34 24 -55
10z"/>
<path d="M397 983 c-16 -16 -5 -33 21 -33 34 0 43 7 35 26 -5 14 -44 19 -56 7z"/>
<path d="M145 870 c-14 -16 -16 -23 -7 -32 10 -10 17 -7 33 9 12 11 18 26 15
32 -10 16 -21 14 -41 -9z"/>
<path d="M350 877 c0 -8 9 -22 21 -33 17 -15 22 -16 29 -4 6 10 4 21 -7 32
-19 21 -43 24 -43 5z"/>
<path d="M254 836 c-8 -21 -1 -49 13 -53 6 -2 14 5 17 15 12 36 -17 72 -30 38z"/>
</g>
</svg>
